# xmcd CD database file
#
# Track frame offsets:
#	150
#	22508
#	33505
#	43840
#	54213
#	68090
#	88470
#	105490
#	116735
#	121938
#
# Disc length: 1867 seconds
#
# Revision: 2
# Processed by: cddbd v1.5.2PL0 Copyright (c) Steve Scherf et al.
# Submitted via: jetAudio 7
#
DISCID=7b07490a
DTITLE=Mike Bloomfield - The Gospel Of Blues
DYEAR=1900
DGENRE=blues
TTITLE0=Peace In The Valley
TTITLE1=Farther Along
TTITLE2=The Altar Song
TTITLE3=Have Thine Own Way
TTITLE4=Jaust A Closer Walk With Thee
TTITLE5=I Must See Jesus
TTITLE6=I'll Overcome
TTITLE7=I Am A Pilgrim
TTITLE8=If You Love These Blues
TTITLE9=Gonna Need Somebody On My Bond
EXTD=
EXTT0=
EXTT1=
EXTT2=
EXTT3=
EXTT4=
EXTT5=
EXTT6=
EXTT7=
EXTT8=
EXTT9=
PLAYORDER=
